<svg version="1.1" preserveAspectRatio="none" xmlns="http://www.w3.org/2000/svg" width="500" height="500" viewBox="0 0 500 500"><rect width="100%" height="100%" fill="#2089EF" fill-opacity="1"/><svg viewBox="39.958 106.4904 477.917 289.4179" width="333" height="201.6587832196804" x="83.5px" y="149.1706px" xmlns="http://www.w3.org/2000/svg" xmlns:xlink="http://www.w3.org/1999/xlink" preserveAspectRatio="none"><defs></defs><style>.companyName {fill:#D9F18A;fill-opacity:1;}.icon1 {fill:#FFA2E8;fill-opacity:1;}.icon2 {fill:#FFDEAC;fill-opacity:1;}.icon3 {fill:#89EFCA;fill-opacity:1;}.icon3-str {stroke:#89EFCA;stroke-opacity:1;}.text {fill:#D9F18A;fill-opacity:1;}</style><g opacity="1" transform="rotate(0 205.8306 106.4904)">
<svg width="146.1718" height="161.4179" x="205.8306" y="106.4904" version="1.1" preserveAspectRatio="none" viewBox="45.020172119140625 39.275001525878906 109.97879028320312 121.45000457763672">
  <g transform="matrix(1 0 0 1 0 0)"><g><path d="M71.553 81.983a3.75 3.75 0 0 0-5.039-.52c-.99.724-1.514 1.93-1.514 3.157v39.319l-19.429 31.045a3.75 3.75 0 0 0 6.357 3.979L65 138.078v18.819c0 1.626.991 3.152 2.543 3.639 2.582.81 4.957-1.1 4.957-3.561V94.338l13.325 14.991c1.222 1.375 3.28 1.824 4.85.865a3.752 3.752 0 0 0 .877-5.711l-19.999-22.5z" data-color="1" class="icon1"></path><path d="M69.475 73.224c9.36 0 16.975-7.615 16.975-16.974 0-9.36-7.615-16.975-16.975-16.975S52.5 46.89 52.5 56.251c0 9.359 7.615 16.973 16.975 16.973zm0-26.448c5.225 0 9.475 4.25 9.475 9.475 0 5.223-4.25 9.474-9.475 9.474S60 61.474 60 56.251c0-5.225 4.25-9.475 9.475-9.475z" data-color="1" class="icon1"></path><path d="M131.975 73.224c9.36 0 16.975-7.615 16.975-16.974 0-9.36-7.615-16.975-16.975-16.975S115 46.89 115 56.251c0 9.359 7.615 16.973 16.975 16.973zm0-26.448c5.225 0 9.475 4.25 9.475 9.475 0 5.223-4.25 9.474-9.475 9.474s-9.475-4.25-9.475-9.474c0-5.225 4.25-9.475 9.475-9.475z" data-color="1" class="icon1"></path><path d="M154.429 154.985L135 123.94V84.474a3.75 3.75 0 0 0-6.553-2.492l-20 22.5a3.75 3.75 0 0 0 5.605 4.983L127.5 94.338v62.637c0 2.07 1.68 3.75 3.75 3.75s3.75-1.68 3.75-3.75v-18.897l13.071 20.887a3.743 3.743 0 0 0 3.181 1.76 3.752 3.752 0 0 0 3.177-5.74z" data-color="1" class="icon1"></path></g></g>
</svg>
</g><g opacity="1" transform="rotate(0 39.958 373.9083)">
<svg width="477.917" height="22" x="39.958" y="373.9083" version="1.1" preserveAspectRatio="none" viewBox="1.68 -31.6 916.1600000000001 42.16">
  <g transform="matrix(1 0 0 1 0 0)" class="text"><path id="id-6izo4zJp38" d="M21.96-7.72Q21.96-5.56 20.88-3.74Q19.80-1.92 17.68-0.82Q15.56 0.28 12.52 0.28L12.52 0.28Q9.52 0.28 7.16-0.74Q4.80-1.76 3.38-3.68Q1.96-5.60 1.76-8.16L1.76-8.16L7.76-8.16Q7.96-6.44 9.14-5.30Q10.32-4.16 12.28-4.16L12.28-4.16Q14.04-4.16 14.98-5.10Q15.92-6.04 15.92-7.52L15.92-7.52Q15.92-8.84 15.16-9.70Q14.40-10.56 13.24-11.08Q12.08-11.60 10.04-12.28L10.04-12.28Q7.40-13.16 5.72-14.02Q4.04-14.88 2.86-16.52Q1.68-18.16 1.68-20.80L1.68-20.80Q1.68-24.44 4.30-26.54Q6.92-28.64 11.24-28.64L11.24-28.64Q15.72-28.64 18.38-26.48Q21.04-24.32 21.40-20.72L21.40-20.72L15.32-20.72Q15.08-22.24 14.04-23.22Q13-24.20 11.20-24.20L11.20-24.20Q9.64-24.20 8.68-23.38Q7.72-22.56 7.72-21L7.72-21Q7.72-19.76 8.46-18.94Q9.20-18.12 10.34-17.60Q11.48-17.08 13.44-16.44L13.44-16.44Q16.16-15.48 17.86-14.64Q19.56-13.80 20.76-12.12Q21.96-10.44 21.96-7.72L21.96-7.72Z M37.76-4.84L39.96-4.84L39.96 0L37 0Q33.28 0 31.30-1.80Q29.32-3.60 29.32-7.80L29.32-7.80L29.32-17.40L26.24-17.40L26.24-22.16L29.32-22.16L29.32-27.64L34.96-27.64L34.96-22.16L39.92-22.16L39.92-17.40L34.96-17.40L34.96-7.72Q34.96-6.12 35.60-5.48Q36.24-4.84 37.76-4.84L37.76-4.84Z M54.68-22.44Q57.48-22.44 59.48-21.12Q61.48-19.80 62.32-17.56L62.32-17.56L62.32-22.16L67.92-22.16L67.92 0L62.32 0L62.32-4.64Q61.48-2.40 59.48-1.06Q57.48 0.28 54.68 0.28L54.68 0.28Q51.88 0.28 49.64-1.08Q47.40-2.44 46.14-5.02Q44.88-7.60 44.88-11.08L44.88-11.08Q44.88-14.56 46.14-17.14Q47.40-19.72 49.64-21.08Q51.88-22.44 54.68-22.44L54.68-22.44ZM56.44-17.52Q53.80-17.52 52.20-15.80Q50.60-14.08 50.60-11.08L50.60-11.08Q50.60-8.08 52.20-6.38Q53.80-4.68 56.44-4.68L56.44-4.68Q59-4.68 60.66-6.42Q62.32-8.16 62.32-11.08L62.32-11.08Q62.32-14.04 60.66-15.78Q59-17.52 56.44-17.52L56.44-17.52Z M72.56-22.16L78.84-22.16L84.88-7.12L90.48-22.16L96.68-22.16L83.12 10.56L76.88 10.56L81.88-0.64L72.56-22.16Z M124.80-28.52Q130.08-28.52 133.56-25.80Q137.04-23.08 138.16-18.40L138.16-18.40L132.24-18.40Q131.32-20.68 129.38-22Q127.44-23.32 124.72-23.32L124.72-23.32Q122.48-23.32 120.68-22.20Q118.88-21.08 117.88-19Q116.88-16.92 116.88-14.12L116.88-14.12Q116.88-11.36 117.88-9.28Q118.88-7.20 120.68-6.08Q122.48-4.96 124.72-4.96L124.72-4.96Q127.44-4.96 129.38-6.28Q131.32-7.60 132.24-9.88L132.24-9.88L138.16-9.88Q137.04-5.20 133.56-2.48Q130.08 0.24 124.80 0.24L124.80 0.24Q120.76 0.24 117.66-1.58Q114.56-3.40 112.86-6.68Q111.16-9.96 111.16-14.12L111.16-14.12Q111.16-18.32 112.86-21.60Q114.56-24.88 117.64-26.70Q120.72-28.52 124.80-28.52L124.80-28.52Z M154.64-22.44Q157.88-22.44 160.46-21.08Q163.04-19.72 164.52-17.14Q166.00-14.56 166.00-11.08L166.00-11.08Q166.00-7.60 164.52-5.04Q163.04-2.48 160.46-1.10Q157.88 0.28 154.64 0.28L154.64 0.28Q151.40 0.28 148.82-1.10Q146.24-2.48 144.76-5.04Q143.28-7.60 143.28-11.08L143.28-11.08Q143.28-14.56 144.76-17.14Q146.24-19.72 148.82-21.08Q151.40-22.44 154.64-22.44L154.64-22.44ZM154.64-17.56Q152.28-17.56 150.64-15.90Q149.00-14.24 149.00-11.08L149.00-11.08Q149.00-7.92 150.64-6.26Q152.28-4.60 154.64-4.60L154.64-4.60Q157.00-4.60 158.64-6.26Q160.28-7.92 160.28-11.08L160.28-11.08Q160.28-14.24 158.64-15.90Q157.00-17.56 154.64-17.56L154.64-17.56Z M185.20-22.48Q189.04-22.48 191.32-19.96Q193.60-17.44 193.60-12.88L193.60-12.88L193.60 0L188.00 0L188.00-12.24Q188.00-14.88 186.64-16.34Q185.28-17.80 182.92-17.80L182.92-17.80Q180.52-17.80 179.08-16.24Q177.64-14.68 177.64-11.76L177.64-11.76L177.64 0L172.00 0L172.00-22.16L177.64-22.16L177.64-17.72Q178.52-19.96 180.54-21.22Q182.56-22.48 185.20-22.48L185.20-22.48Z M213.76-22.48Q217.60-22.48 219.88-19.96Q222.16-17.44 222.16-12.88L222.16-12.88L222.16 0L216.56 0L216.56-12.24Q216.56-14.88 215.20-16.34Q213.84-17.80 211.48-17.80L211.48-17.80Q209.08-17.80 207.64-16.24Q206.20-14.68 206.20-11.76L206.20-11.76L206.20 0L200.56 0L200.56-22.16L206.20-22.16L206.20-17.72Q207.08-19.96 209.10-21.22Q211.12-22.48 213.76-22.48L213.76-22.48Z M249.96-11.92Q249.96-11.08 249.76-10L249.76-10L233.52-10Q233.64-7.04 235.12-5.64Q236.60-4.24 238.80-4.24L238.80-4.24Q240.76-4.24 242.06-5.20Q243.36-6.16 243.72-7.80L243.72-7.80L249.68-7.80Q249.24-5.48 247.80-3.64Q246.36-1.80 244.10-0.76Q241.84 0.28 239.08 0.28L239.08 0.28Q235.84 0.28 233.32-1.10Q230.80-2.48 229.40-5.04Q228.00-7.60 228.00-11.08L228.00-11.08Q228.00-14.56 229.40-17.14Q230.80-19.72 233.32-21.08Q235.84-22.44 239.08-22.44L239.08-22.44Q242.36-22.44 244.82-21.08Q247.28-19.72 248.62-17.34Q249.96-14.96 249.96-11.92L249.96-11.92ZM244.28-12.48Q244.40-15.20 242.86-16.60Q241.32-18 239.08-18L239.08-18Q236.80-18 235.24-16.60Q233.68-15.20 233.52-12.48L233.52-12.48L244.28-12.48Z M265.92-22.44Q270.20-22.44 273.06-20.12Q275.92-17.80 276.64-13.80L276.64-13.80L270.68-13.80Q270.32-15.56 269.04-16.58Q267.76-17.60 265.80-17.60L265.80-17.60Q263.56-17.60 262.06-15.94Q260.56-14.28 260.56-11.08L260.56-11.08Q260.56-7.88 262.06-6.22Q263.56-4.56 265.80-4.56L265.80-4.56Q267.76-4.56 269.04-5.58Q270.32-6.60 270.68-8.36L270.68-8.36L276.64-8.36Q275.92-4.36 273.06-2.04Q270.20 0.28 265.92 0.28L265.92 0.28Q262.68 0.28 260.16-1.10Q257.64-2.48 256.24-5.04Q254.84-7.60 254.84-11.08L254.84-11.08Q254.84-14.56 256.24-17.14Q257.64-19.72 260.16-21.08Q262.68-22.44 265.92-22.44L265.92-22.44Z M292.28-4.84L294.48-4.84L294.48 0L291.52 0Q287.80 0 285.82-1.80Q283.84-3.60 283.84-7.80L283.84-7.80L283.84-17.40L280.76-17.40L280.76-22.16L283.84-22.16L283.84-27.64L289.48-27.64L289.48-22.16L294.44-22.16L294.44-17.40L289.48-17.40L289.48-7.72Q289.48-6.12 290.12-5.48Q290.76-4.84 292.28-4.84L292.28-4.84Z M321.36-11.92Q321.36-11.08 321.16-10L321.16-10L304.92-10Q305.04-7.04 306.52-5.64Q308-4.24 310.20-4.24L310.20-4.24Q312.16-4.24 313.46-5.20Q314.76-6.16 315.12-7.80L315.12-7.80L321.08-7.80Q320.64-5.48 319.20-3.64Q317.76-1.80 315.50-0.76Q313.24 0.28 310.48 0.28L310.48 0.28Q307.24 0.28 304.72-1.10Q302.20-2.48 300.80-5.04Q299.40-7.60 299.40-11.08L299.40-11.08Q299.40-14.56 300.80-17.14Q302.20-19.72 304.72-21.08Q307.24-22.44 310.48-22.44L310.48-22.44Q313.76-22.44 316.22-21.08Q318.68-19.72 320.02-17.34Q321.36-14.96 321.36-11.92L321.36-11.92ZM315.68-12.48Q315.80-15.20 314.26-16.60Q312.72-18 310.48-18L310.48-18Q308.20-18 306.64-16.60Q305.08-15.20 304.92-12.48L304.92-12.48L315.68-12.48Z M336.04-22.44Q338.84-22.44 340.82-21.12Q342.80-19.80 343.68-17.56L343.68-17.56L343.68-29.60L349.28-29.60L349.28 0L343.68 0L343.68-4.64Q342.80-2.40 340.82-1.06Q338.84 0.28 336.04 0.28L336.04 0.28Q333.24 0.28 331.00-1.08Q328.76-2.44 327.50-5.02Q326.24-7.60 326.24-11.08L326.24-11.08Q326.24-14.56 327.50-17.14Q328.76-19.72 331.00-21.08Q333.24-22.44 336.04-22.44L336.04-22.44ZM337.80-17.52Q335.16-17.52 333.56-15.80Q331.96-14.08 331.96-11.08L331.96-11.08Q331.96-8.08 333.56-6.38Q335.16-4.68 337.80-4.68L337.80-4.68Q340.36-4.68 342.02-6.42Q343.68-8.16 343.68-11.08L343.68-11.08Q343.68-14.04 342.02-15.78Q340.36-17.52 337.80-17.52L337.80-17.52Z M375.80-22.44Q378.60-22.44 380.60-21.12Q382.60-19.80 383.44-17.56L383.44-17.56L383.44-22.16L389.04-22.16L389.04 0L383.44 0L383.44-4.64Q382.60-2.40 380.60-1.06Q378.60 0.28 375.80 0.28L375.80 0.28Q373 0.28 370.76-1.08Q368.52-2.44 367.26-5.02Q366-7.60 366-11.08L366-11.08Q366-14.56 367.26-17.14Q368.52-19.72 370.76-21.08Q373-22.44 375.80-22.44L375.80-22.44ZM377.56-17.52Q374.92-17.52 373.32-15.80Q371.72-14.08 371.72-11.08L371.72-11.08Q371.72-8.08 373.32-6.38Q374.92-4.68 377.56-4.68L377.56-4.68Q380.12-4.68 381.78-6.42Q383.44-8.16 383.44-11.08L383.44-11.08Q383.44-14.04 381.78-15.78Q380.12-17.52 377.56-17.52L377.56-17.52Z M409.36-22.48Q413.20-22.48 415.48-19.96Q417.76-17.44 417.76-12.88L417.76-12.88L417.76 0L412.16 0L412.16-12.24Q412.16-14.88 410.80-16.34Q409.44-17.80 407.08-17.80L407.08-17.80Q404.68-17.80 403.24-16.24Q401.80-14.68 401.80-11.76L401.80-11.76L401.80 0L396.16 0L396.16-22.16L401.80-22.16L401.80-17.72Q402.68-19.96 404.70-21.22Q406.72-22.48 409.36-22.48L409.36-22.48Z M433.40-22.44Q436.20-22.44 438.18-21.12Q440.16-19.80 441.04-17.56L441.04-17.56L441.04-29.60L446.64-29.60L446.64 0L441.04 0L441.04-4.64Q440.16-2.40 438.18-1.06Q436.20 0.28 433.40 0.28L433.40 0.28Q430.60 0.28 428.36-1.08Q426.12-2.44 424.86-5.02Q423.60-7.60 423.60-11.08L423.60-11.08Q423.60-14.56 424.86-17.14Q426.12-19.72 428.36-21.08Q430.60-22.44 433.40-22.44L433.40-22.44ZM435.16-17.52Q432.52-17.52 430.92-15.80Q429.32-14.08 429.32-11.08L429.32-11.08Q429.32-8.08 430.92-6.38Q432.52-4.68 435.16-4.68L435.16-4.68Q437.72-4.68 439.38-6.42Q441.04-8.16 441.04-11.08L441.04-11.08Q441.04-14.04 439.38-15.78Q437.72-17.52 435.16-17.52L435.16-17.52Z M477.56-28.52Q482.72-28.52 486.12-25.98Q489.52-23.44 490.48-19.12L490.48-19.12L484.56-19.12Q483.72-21.04 481.90-22.18Q480.08-23.32 477.60-23.32L477.60-23.32Q475.16-23.32 473.28-22.20Q471.40-21.08 470.36-19Q469.32-16.92 469.32-14.12L469.32-14.12Q469.32-9.68 471.70-7.20Q474.08-4.72 478.20-4.72L478.20-4.72Q481.24-4.72 483.42-6.52Q485.60-8.32 486.24-11.52L486.24-11.52L476.68-11.52L476.68-15.56L490.96-15.56L490.96-10.12Q490.36-7.32 488.62-4.96Q486.88-2.60 484.06-1.18Q481.24 0.24 477.60 0.24L477.60 0.24Q473.44 0.24 470.26-1.58Q467.08-3.40 465.34-6.66Q463.60-9.92 463.60-14.12L463.60-14.12Q463.60-18.32 465.34-21.58Q467.08-24.84 470.24-26.68Q473.40-28.52 477.56-28.52L477.56-28.52Z M502.84-17.92Q504.08-20.04 506.12-21.26Q508.16-22.48 510.68-22.48L510.68-22.48L510.68-16.44L509.04-16.44Q502.84-16.44 502.84-10.68L502.84-10.68L502.84 0L497.20 0L497.20-22.16L502.84-22.16L502.84-17.92Z M524.48-22.44Q527.28-22.44 529.28-21.12Q531.28-19.80 532.12-17.56L532.12-17.56L532.12-22.16L537.72-22.16L537.72 0L532.12 0L532.12-4.64Q531.28-2.40 529.28-1.06Q527.28 0.28 524.48 0.28L524.48 0.28Q521.68 0.28 519.44-1.08Q517.20-2.44 515.94-5.02Q514.68-7.60 514.68-11.08L514.68-11.08Q514.68-14.56 515.94-17.14Q517.20-19.72 519.44-21.08Q521.68-22.44 524.48-22.44L524.48-22.44ZM526.24-17.52Q523.60-17.52 522.00-15.80Q520.40-14.08 520.40-11.08L520.40-11.08Q520.40-8.08 522.00-6.38Q523.60-4.68 526.24-4.68L526.24-4.68Q528.80-4.68 530.46-6.42Q532.12-8.16 532.12-11.08L532.12-11.08Q532.12-14.04 530.46-15.78Q528.80-17.52 526.24-17.52L526.24-17.52Z M558.08-22.44Q560.88-22.44 563.12-21.08Q565.36-19.72 566.62-17.14Q567.88-14.56 567.88-11.08L567.88-11.08Q567.88-7.60 566.62-5.02Q565.36-2.44 563.12-1.08Q560.88 0.28 558.08 0.28L558.08 0.28Q555.28 0.28 553.30-1.06Q551.32-2.40 550.48-4.64L550.48-4.64L550.48 10.56L544.84 10.56L544.84-22.16L550.48-22.16L550.48-17.56Q551.32-19.80 553.30-21.12Q555.28-22.44 558.08-22.44L558.08-22.44ZM556.32-17.52Q553.76-17.52 552.10-15.78Q550.44-14.04 550.44-11.08L550.44-11.08Q550.44-8.16 552.10-6.42Q553.76-4.68 556.32-4.68L556.32-4.68Q558.96-4.68 560.56-6.38Q562.16-8.08 562.16-11.08L562.16-11.08Q562.16-14.08 560.56-15.80Q558.96-17.52 556.32-17.52L556.32-17.52Z M593.28-22.44Q596.08-22.44 598.08-21.12Q600.08-19.80 600.92-17.56L600.92-17.56L600.92-22.16L606.52-22.16L606.52 0L600.92 0L600.92-4.64Q600.08-2.40 598.08-1.06Q596.08 0.28 593.28 0.28L593.28 0.28Q590.48 0.28 588.24-1.08Q586.00-2.44 584.74-5.02Q583.48-7.60 583.48-11.08L583.48-11.08Q583.48-14.56 584.74-17.14Q586.00-19.72 588.24-21.08Q590.48-22.44 593.28-22.44L593.28-22.44ZM595.04-17.52Q592.40-17.52 590.80-15.80Q589.20-14.08 589.20-11.08L589.20-11.08Q589.20-8.08 590.80-6.38Q592.40-4.68 595.04-4.68L595.04-4.68Q597.60-4.68 599.26-6.42Q600.92-8.16 600.92-11.08L600.92-11.08Q600.92-14.04 599.26-15.78Q597.60-17.52 595.04-17.52L595.04-17.52Z M626.84-22.48Q630.68-22.48 632.96-19.96Q635.24-17.44 635.24-12.88L635.24-12.88L635.24 0L629.64 0L629.64-12.24Q629.64-14.88 628.28-16.34Q626.92-17.80 624.56-17.80L624.56-17.80Q622.16-17.80 620.72-16.24Q619.28-14.68 619.28-11.76L619.28-11.76L619.28 0L613.64 0L613.64-22.16L619.28-22.16L619.28-17.72Q620.16-19.96 622.18-21.22Q624.20-22.48 626.84-22.48L626.84-22.48Z M666.16-28.64Q670.12-28.64 673.34-26.80Q676.56-24.96 678.42-21.66Q680.28-18.36 680.28-14.20L680.28-14.20Q680.28-10.04 678.42-6.72Q676.56-3.40 673.34-1.56Q670.12 0.28 666.16 0.28L666.16 0.28Q662.20 0.28 658.98-1.56Q655.76-3.40 653.90-6.72Q652.04-10.04 652.04-14.20L652.04-14.20Q652.04-18.36 653.90-21.66Q655.76-24.96 658.98-26.80Q662.20-28.64 666.16-28.64L666.16-28.64ZM666.16-23.44Q663.68-23.44 661.80-22.32Q659.92-21.20 658.86-19.10Q657.80-17 657.80-14.20L657.80-14.20Q657.80-11.40 658.86-9.30Q659.92-7.20 661.80-6.08Q663.68-4.96 666.16-4.96L666.16-4.96Q668.64-4.96 670.52-6.08Q672.40-7.20 673.46-9.30Q674.52-11.40 674.52-14.20L674.52-14.20Q674.52-17 673.46-19.10Q672.40-21.20 670.52-22.32Q668.64-23.44 666.16-23.44L666.16-23.44Z M699.76-22.44Q702.56-22.44 704.80-21.08Q707.04-19.72 708.30-17.14Q709.56-14.56 709.56-11.08L709.56-11.08Q709.56-7.60 708.30-5.02Q707.04-2.44 704.80-1.08Q702.56 0.28 699.76 0.28L699.76 0.28Q696.96 0.28 694.98-1.06Q693.00-2.40 692.16-4.64L692.16-4.64L692.16 10.56L686.52 10.56L686.52-22.16L692.16-22.16L692.16-17.56Q693.00-19.80 694.98-21.12Q696.96-22.44 699.76-22.44L699.76-22.44ZM698.00-17.52Q695.44-17.52 693.78-15.78Q692.12-14.04 692.12-11.08L692.12-11.08Q692.12-8.16 693.78-6.42Q695.44-4.68 698.00-4.68L698.00-4.68Q700.64-4.68 702.24-6.38Q703.84-8.08 703.84-11.08L703.84-11.08Q703.84-14.08 702.24-15.80Q700.64-17.52 698.00-17.52L698.00-17.52Z M728.80-22.44Q731.60-22.44 733.84-21.08Q736.08-19.72 737.34-17.14Q738.60-14.56 738.60-11.08L738.60-11.08Q738.60-7.60 737.34-5.02Q736.08-2.44 733.84-1.08Q731.60 0.28 728.80 0.28L728.80 0.28Q726.00 0.28 724.02-1.06Q722.04-2.40 721.20-4.64L721.20-4.64L721.20 10.56L715.56 10.56L715.56-22.16L721.20-22.16L721.20-17.56Q722.04-19.80 724.02-21.12Q726.00-22.44 728.80-22.44L728.80-22.44ZM727.04-17.52Q724.48-17.52 722.82-15.78Q721.16-14.04 721.16-11.08L721.16-11.08Q721.16-8.16 722.82-6.42Q724.48-4.68 727.04-4.68L727.04-4.68Q729.68-4.68 731.28-6.38Q732.88-8.08 732.88-11.08L732.88-11.08Q732.88-14.08 731.28-15.80Q729.68-17.52 727.04-17.52L727.04-17.52Z M754.84-22.44Q758.08-22.44 760.66-21.08Q763.24-19.72 764.72-17.14Q766.20-14.56 766.20-11.08L766.20-11.08Q766.20-7.60 764.72-5.04Q763.24-2.48 760.66-1.10Q758.08 0.28 754.84 0.28L754.84 0.28Q751.60 0.28 749.02-1.10Q746.44-2.48 744.96-5.04Q743.48-7.60 743.48-11.08L743.48-11.08Q743.48-14.56 744.96-17.14Q746.44-19.72 749.02-21.08Q751.60-22.44 754.84-22.44L754.84-22.44ZM754.84-17.56Q752.48-17.56 750.84-15.90Q749.20-14.24 749.20-11.08L749.20-11.08Q749.20-7.92 750.84-6.26Q752.48-4.60 754.84-4.60L754.84-4.60Q757.20-4.60 758.84-6.26Q760.48-7.92 760.48-11.08L760.48-11.08Q760.48-14.24 758.84-15.90Q757.20-17.56 754.84-17.56L754.84-17.56Z M777.84-17.92Q779.08-20.04 781.12-21.26Q783.16-22.48 785.68-22.48L785.68-22.48L785.68-16.44L784.04-16.44Q777.84-16.44 777.84-10.68L777.84-10.68L777.84 0L772.20 0L772.20-22.16L777.84-22.16L777.84-17.92Z M800.44-4.84L802.64-4.84L802.64 0L799.68 0Q795.96 0 793.98-1.80Q792.00-3.60 792.00-7.80L792.00-7.80L792.00-17.40L788.92-17.40L788.92-22.16L792.00-22.16L792.00-27.64L797.64-27.64L797.64-22.16L802.60-22.16L802.60-17.40L797.64-17.40L797.64-7.72Q797.64-6.12 798.28-5.48Q798.92-4.84 800.44-4.84L800.44-4.84Z M824.24-22.16L829.88-22.16L829.88 0L824.24 0L824.24-4.48Q823.36-2.24 821.34-0.98Q819.32 0.28 816.68 0.28L816.68 0.28Q812.84 0.28 810.56-2.24Q808.28-4.76 808.28-9.28L808.28-9.28L808.28-22.16L813.88-22.16L813.88-9.92Q813.88-7.28 815.24-5.82Q816.60-4.36 818.92-4.36L818.92-4.36Q821.36-4.36 822.80-5.92Q824.24-7.48 824.24-10.40L824.24-10.40L824.24-22.16Z M850.20-22.48Q854.04-22.48 856.32-19.96Q858.60-17.44 858.60-12.88L858.60-12.88L858.60 0L853.00 0L853.00-12.24Q853.00-14.88 851.64-16.34Q850.28-17.80 847.92-17.80L847.92-17.80Q845.52-17.80 844.08-16.24Q842.64-14.68 842.64-11.76L842.64-11.76L842.64 0L837.00 0L837.00-22.16L842.64-22.16L842.64-17.72Q843.52-19.96 845.54-21.22Q847.56-22.48 850.20-22.48L850.20-22.48Z M864.92-28.52Q864.92-29.88 865.88-30.74Q866.84-31.60 868.40-31.60L868.40-31.60Q869.96-31.60 870.92-30.74Q871.88-29.88 871.88-28.52L871.88-28.52Q871.88-27.20 870.92-26.34Q869.96-25.48 868.40-25.48L868.40-25.48Q866.84-25.48 865.88-26.34Q864.92-27.20 864.92-28.52L864.92-28.52ZM865.56-22.16L871.20-22.16L871.20 0L865.56 0L865.56-22.16Z M887.96-4.84L890.16-4.84L890.16 0L887.20 0Q883.48 0 881.50-1.80Q879.52-3.60 879.52-7.80L879.52-7.80L879.52-17.40L876.44-17.40L876.44-22.16L879.52-22.16L879.52-27.64L885.16-27.64L885.16-22.16L890.12-22.16L890.12-17.40L885.16-17.40L885.16-7.72Q885.16-6.12 885.80-5.48Q886.44-4.84 887.96-4.84L887.96-4.84Z M893.72-22.16L900.00-22.16L906.04-7.12L911.64-22.16L917.84-22.16L904.28 10.56L898.04 10.56L903.04-0.64L893.72-22.16Z"/></g>
</svg>
</g><g opacity="1" transform="rotate(0 96.2018 307.9083)">
<svg width="365.4294" height="50" x="96.2018" y="307.9083" version="1.1" preserveAspectRatio="none" viewBox="0 -33.16 243.51999999999998 33.31999999999999">
  <g transform="matrix(1 0 0 1 0 0)" class="companyName"><path id="id-D6z1nYkh10" d="M21.56 0L20.16-4.28L10.72-4.28L9.32 0L0 0L10.36-28.32L20.60-28.32L30.92 0L21.56 0ZM12.88-10.96L18-10.96L15.44-18.84L12.88-10.96Z M32.92-29.60L41.80-29.60L41.80 0L32.92 0L32.92-29.60Z M60.80-22.56L69.68-22.56L69.68 0L60.80 0L60.80-3.44Q59.76-1.84 58.02-0.84Q56.28 0.16 53.88 0.16L53.88 0.16Q50.00 0.16 47.82-2.44Q45.64-5.04 45.64-9.48L45.64-9.48L45.64-22.56L54.48-22.56L54.48-10.60Q54.48-9 55.34-8.06Q56.20-7.12 57.64-7.12L57.64-7.12Q59.12-7.12 59.96-8.06Q60.80-9 60.80-10.60L60.80-10.60L60.80-22.56Z M89.48-22.72Q93.36-22.72 95.54-20.12Q97.72-17.52 97.72-13.08L97.72-13.08L97.72 0L88.88 0L88.88-11.96Q88.88-13.56 88.02-14.50Q87.16-15.44 85.72-15.44L85.72-15.44Q84.24-15.44 83.40-14.50Q82.56-13.56 82.56-11.96L82.56-11.96L82.56 0L73.68 0L73.68-22.56L82.56-22.56L82.56-19.12Q83.60-20.72 85.34-21.72Q87.08-22.72 89.48-22.72L89.48-22.72Z M131.68-22.72Q136-22.72 138.38-20.12Q140.76-17.52 140.76-13.08L140.76-13.08L140.76 0L131.92 0L131.92-11.96Q131.92-13.40 131.06-14.22Q130.20-15.04 128.76-15.04L128.76-15.04Q127.28-15.04 126.44-14.22Q125.60-13.40 125.60-11.96L125.60-11.96L125.60 0L116.76 0L116.76-11.96Q116.76-13.40 115.90-14.22Q115.04-15.04 113.60-15.04L113.60-15.04Q112.12-15.04 111.28-14.22Q110.44-13.40 110.44-11.96L110.44-11.96L110.44 0L101.56 0L101.56-22.56L110.44-22.56L110.44-19.52Q111.40-20.96 113.06-21.84Q114.72-22.72 116.96-22.72L116.96-22.72Q119.40-22.72 121.28-21.66Q123.16-20.60 124.28-18.68L124.28-18.68Q125.52-20.44 127.44-21.58Q129.36-22.72 131.68-22.72L131.68-22.72Z M143.96-28.72Q143.96-30.64 145.36-31.90Q146.76-33.16 149.08-33.16L149.08-33.16Q151.36-33.16 152.76-31.90Q154.16-30.64 154.16-28.72L154.16-28.72Q154.16-26.84 152.76-25.60Q151.36-24.36 149.08-24.36L149.08-24.36Q146.76-24.36 145.36-25.60Q143.96-26.84 143.96-28.72L143.96-28.72ZM144.60-22.56L153.48-22.56L153.48 0L144.60 0L144.60-22.56Z M166.36-28.32L166.36-6.72L174.92-6.72L174.92 0L157.48 0L157.48-28.32L166.36-28.32Z M177.08-28.72Q177.08-30.64 178.48-31.90Q179.88-33.16 182.20-33.16L182.20-33.16Q184.48-33.16 185.88-31.90Q187.28-30.64 187.28-28.72L187.28-28.72Q187.28-26.84 185.88-25.60Q184.48-24.36 182.20-24.36L182.20-24.36Q179.88-24.36 178.48-25.60Q177.08-26.84 177.08-28.72L177.08-28.72ZM177.72-22.56L186.60-22.56L186.60 0L177.72 0L177.72-22.56Z M206.40-22.72Q210.28-22.72 212.46-20.12Q214.64-17.52 214.64-13.08L214.64-13.08L214.64 0L205.80 0L205.80-11.96Q205.80-13.56 204.94-14.50Q204.08-15.44 202.64-15.44L202.64-15.44Q201.16-15.44 200.32-14.50Q199.48-13.56 199.48-11.96L199.48-11.96L199.48 0L190.60 0L190.60-22.56L199.48-22.56L199.48-19.12Q200.52-20.72 202.26-21.72Q204-22.72 206.40-22.72L206.40-22.72Z M243.52 0L232.92 0L227.36-9L227.36 0L218.48 0L218.48-29.60L227.36-29.60L227.36-14.12L233-22.56L243.32-22.56L234.88-11.20L243.52 0Z"/></g>
</svg>
</g></svg></svg>