<svg version="1.1" preserveAspectRatio="none" xmlns="http://www.w3.org/2000/svg" width="500" height="500" viewBox="0 0 500 500"><rect width="100%" height="100%" fill="#0F222D" fill-opacity="1"/><svg viewBox="199.1918 39.7019 353.0476 241.4277" width="333" height="227.71837027075102" x="83.5px" y="136.1408px" xmlns="http://www.w3.org/2000/svg" xmlns:xlink="http://www.w3.org/1999/xlink" preserveAspectRatio="none"><defs></defs><style>.aDFQBjvS2colors-3 {fill:#21303A;fill-opacity:1;}.aDFQBjvS2colors-4 {fill:#51819E;fill-opacity:1;}.aDFQBjvS2colors-5 {fill:#064B75;fill-opacity:1;}.aDFQBjvS2colors-6 {fill:#ACA58C;fill-opacity:1;}.aDFQBjvS2colors-7 {fill:#3E5563;fill-opacity:1;}.companyName {fill:#EBE7D9;fill-opacity:1;}.icon1 {fill:#FFF5D0;fill-opacity:1;}.icon2 {fill:#BA3521;fill-opacity:1;}.icon3 {fill:#F55139;fill-opacity:1;}.icon3-str {stroke:#F55139;stroke-opacity:1;}.text {fill:#EBE7D9;fill-opacity:1;}</style><g opacity="1" transform="rotate(0 256.2939 260.3296)">
<svg width="238.8435" height="20.8" x="256.2939" y="260.3296" version="1.1" preserveAspectRatio="none" viewBox="2.36 -31 367.4 32">
  <g transform="matrix(1 0 0 1 0 0)" class="text"><path id="id-6izo4zJp16" d="M25.40-2.16Q24-1.24 21.86-0.46Q19.72 0.32 17.20 0.32L17.20 0.32Q12.76 0.32 9.38-1.64Q6-3.60 4.18-6.92Q2.36-10.24 2.36-14.24L2.36-14.24Q2.36-18.52 4.20-21.94Q6.04-25.36 9.30-27.30Q12.56-29.24 16.68-29.24L16.68-29.24Q19.12-29.24 21.24-28.60Q23.36-27.96 25.04-26.92L25.04-26.92L23.48-23.28Q20.16-25.52 16.80-25.52L16.80-25.52Q14-25.52 11.62-24.04Q9.24-22.56 7.82-20.02Q6.40-17.48 6.40-14.44L6.40-14.44Q6.40-11.32 7.70-8.80Q9-6.28 11.42-4.86Q13.84-3.44 17-3.44L17-3.44Q20.88-3.44 23.76-5.64L23.76-5.64L25.40-2.16Z M31.96-8.44Q31.96-10.88 33.14-12.90Q34.32-14.92 36.42-16.08Q38.52-17.24 41.16-17.24L41.16-17.24Q43.80-17.24 45.86-16.08Q47.92-14.92 49.06-12.92Q50.20-10.92 50.20-8.44L50.20-8.44Q50.20-5.96 49.06-3.94Q47.92-1.92 45.84-0.76Q43.76 0.40 41.08 0.40L41.08 0.40Q38.48 0.40 36.40-0.70Q34.32-1.80 33.14-3.80Q31.96-5.80 31.96-8.44L31.96-8.44ZM35.72-8.40Q35.72-6.84 36.42-5.52Q37.12-4.20 38.34-3.44Q39.56-2.68 41.04-2.68L41.04-2.68Q43.36-2.68 44.88-4.32Q46.40-5.96 46.40-8.40L46.40-8.40Q46.40-10.84 44.88-12.50Q43.36-14.16 41.04-14.16L41.04-14.16Q39.52-14.16 38.32-13.38Q37.12-12.60 36.42-11.28Q35.72-9.96 35.72-8.40L35.72-8.40Z M67.88-17.20Q70.20-17.20 71.72-15.82Q73.24-14.44 73.28-12.24L73.28-12.24L73.28 0L69.52 0L69.52-10.96Q69.44-12.36 68.68-13.16Q67.92-13.96 66.40-14L66.40-14Q64.20-14 62.76-12.24Q61.32-10.48 61.32-7.76L61.32-7.76L61.32 0L57.60 0L57.60-16.56L60.96-16.56L61.20-13.36Q62.08-15.16 63.84-16.18Q65.60-17.20 67.88-17.20L67.88-17.20Z M92.40-17.20Q94.72-17.20 96.24-15.82Q97.76-14.44 97.80-12.24L97.80-12.24L97.80 0L94.04 0L94.04-10.96Q93.96-12.36 93.20-13.16Q92.44-13.96 90.92-14L90.92-14Q88.72-14 87.28-12.24Q85.84-10.48 85.84-7.76L85.84-7.76L85.84 0L82.12 0L82.12-16.56L85.48-16.56L85.72-13.36Q86.60-15.16 88.36-16.18Q90.12-17.20 92.40-17.20L92.40-17.20Z M114.40-2.80Q116.48-2.80 118.44-4.24L118.44-4.24L120.16-1.48Q118.84-0.60 117.30-0.10Q115.76 0.40 114.32 0.40L114.32 0.40Q111.56 0.40 109.50-0.74Q107.44-1.88 106.32-3.88Q105.20-5.88 105.20-8.40L105.20-8.40Q105.20-10.84 106.42-12.86Q107.64-14.88 109.76-16.06Q111.88-17.24 114.40-17.24L114.40-17.24Q117.64-17.24 119.82-15.34Q122.00-13.44 122.80-10.04L122.80-10.04L109.68-5.44Q110.40-4.20 111.62-3.50Q112.84-2.80 114.40-2.80L114.40-2.80ZM114.12-14.28Q111.84-14.28 110.36-12.68Q108.88-11.08 108.88-8.60L108.88-8.60Q108.88-8 108.92-7.68L108.92-7.68L118.56-11.24Q117.96-12.60 116.86-13.44Q115.76-14.28 114.12-14.28L114.12-14.28Z M143.28-1.56Q142.16-0.64 140.62-0.12Q139.08 0.40 137.48 0.40L137.48 0.40Q134.80 0.40 132.74-0.68Q130.68-1.76 129.54-3.74Q128.40-5.72 128.40-8.32L128.40-8.32Q128.40-10.88 129.60-12.86Q130.80-14.84 132.80-15.92Q134.80-17 137.12-17L137.12-17Q140.92-17 143.40-14.92L143.40-14.92L141.52-12.48Q140.72-13.08 139.68-13.50Q138.64-13.92 137.44-13.92L137.44-13.92Q135.96-13.92 134.74-13.18Q133.52-12.44 132.82-11.16Q132.12-9.88 132.12-8.32L132.12-8.32Q132.12-6.76 132.86-5.48Q133.60-4.20 134.88-3.44Q136.16-2.68 137.80-2.68L137.80-2.68Q139.84-2.68 141.36-3.88L141.36-3.88L143.28-1.56Z M152.08-23.84L155.84-23.84L155.84-16.52L160.36-16.52L160.36-13.56L155.84-13.56L155.84 0L152.08 0L152.08-13.56L149.04-13.56L149.04-16.52L152.08-16.52L152.08-23.84Z M195.88-16.56L199.32-16.56L199.32 0L195.60 0L195.60-2.72Q194.72-1.56 193.04-0.58Q191.36 0.40 189.24 0.40L189.24 0.40Q186.88 0.40 184.98-0.62Q183.08-1.64 181.98-3.60Q180.88-5.56 180.88-8.28L180.88-8.28Q180.88-11 182.02-13.02Q183.16-15.04 185.10-16.14Q187.04-17.24 189.40-17.24L189.40-17.24Q191.52-17.24 193.08-16.32Q194.64-15.40 195.60-13.92L195.60-13.92L195.88-16.56ZM190.24-2.68Q192.28-2.68 193.74-3.82Q195.20-4.96 195.60-6.92L195.60-6.92L195.60-10.20Q195.12-11.96 193.60-13.06Q192.08-14.16 190.12-14.16L190.12-14.16Q188.64-14.16 187.38-13.44Q186.12-12.72 185.38-11.42Q184.64-10.12 184.64-8.48L184.64-8.48Q184.64-6.88 185.40-5.56Q186.16-4.24 187.44-3.46Q188.72-2.68 190.24-2.68L190.24-2.68Z M218.48-17.20Q220.80-17.20 222.32-15.82Q223.84-14.44 223.88-12.24L223.88-12.24L223.88 0L220.12 0L220.12-10.96Q220.04-12.36 219.28-13.16Q218.52-13.96 217.00-14L217.00-14Q214.80-14 213.36-12.24Q211.92-10.48 211.92-7.76L211.92-7.76L211.92 0L208.20 0L208.20-16.56L211.56-16.56L211.80-13.36Q212.68-15.16 214.44-16.18Q216.20-17.20 218.48-17.20L218.48-17.20Z M246.28-31L250.00-31L250.00 0L246.24 0L246.24-2.60Q245.04-1.20 243.30-0.40Q241.56 0.40 239.48 0.40L239.48 0.40Q237.16 0.40 235.28-0.72Q233.40-1.84 232.34-3.86Q231.28-5.88 231.28-8.52L231.28-8.52Q231.28-11.20 232.40-13.18Q233.52-15.16 235.48-16.20Q237.44-17.24 239.92-17.24L239.92-17.24Q241.80-17.24 243.54-16.46Q245.28-15.68 246.28-14.32L246.28-14.32L246.28-31ZM240.64-2.80Q242.80-2.80 244.30-3.96Q245.80-5.12 246.24-7.08L246.24-7.08L246.24-10.20Q245.76-12 244.20-13.14Q242.64-14.28 240.64-14.28L240.64-14.28Q239.12-14.28 237.84-13.54Q236.56-12.80 235.80-11.50Q235.04-10.20 235.04-8.56L235.04-8.56Q235.04-6.96 235.80-5.64Q236.56-4.32 237.84-3.56Q239.12-2.80 240.64-2.80L240.64-2.80Z M297.48-2.48Q296.16-1.44 293.34-0.56Q290.52 0.32 288.12 0.32L288.12 0.32Q283.60 0.32 280.16-1.54Q276.72-3.40 274.86-6.64Q273.00-9.88 273.00-13.92L273.00-13.92Q273.00-18.64 275.00-22.10Q277.00-25.56 280.40-27.40Q283.80-29.24 287.84-29.24L287.84-29.24Q290.28-29.24 292.44-28.66Q294.60-28.08 296.32-27.12L296.32-27.12L295.04-23.56Q293.76-24.28 291.82-24.82Q289.88-25.36 288.32-25.36L288.32-25.36Q284.96-25.36 282.38-24Q279.80-22.64 278.40-20.12Q277.00-17.60 277.00-14.24L277.00-14.24Q277.00-11.12 278.40-8.68Q279.80-6.24 282.36-4.90Q284.92-3.56 288.20-3.56L288.20-3.56Q289.72-3.56 291.16-3.86Q292.60-4.16 293.56-4.72L293.56-4.72L293.56-10.44L287.80-10.44L287.80-14.16L297.48-14.16L297.48-2.48Z M309.96-12.64Q310.60-14 311.78-15.04Q312.96-16.08 314.28-16.64Q315.60-17.20 316.60-17.24L316.60-17.24L316.44-13.52Q314.64-13.60 313.18-12.80Q311.72-12 310.90-10.58Q310.08-9.16 310.08-7.56L310.08-7.56L310.08 0L306.36 0L306.36-16.56L309.68-16.56L309.96-12.64Z M321.64-8.44Q321.64-10.88 322.82-12.90Q324-14.92 326.10-16.08Q328.20-17.24 330.84-17.24L330.84-17.24Q333.48-17.24 335.54-16.08Q337.60-14.92 338.74-12.92Q339.88-10.92 339.88-8.44L339.88-8.44Q339.88-5.96 338.74-3.94Q337.60-1.92 335.52-0.76Q333.44 0.40 330.76 0.40L330.76 0.40Q328.16 0.40 326.08-0.70Q324-1.80 322.82-3.80Q321.64-5.80 321.64-8.44L321.64-8.44ZM325.40-8.40Q325.40-6.84 326.10-5.52Q326.80-4.20 328.02-3.44Q329.24-2.68 330.72-2.68L330.72-2.68Q333.04-2.68 334.56-4.32Q336.08-5.96 336.08-8.40L336.08-8.40Q336.08-10.84 334.56-12.50Q333.04-14.16 330.72-14.16L330.72-14.16Q329.20-14.16 328-13.38Q326.80-12.60 326.10-11.28Q325.40-9.96 325.40-8.40L325.40-8.40Z M366.08-16.56L369.76-16.56L362.12 1L356.80-10.36L351.96 1L344.28-16.56L347.96-16.56L352.40-6.52L355.48-13.72L354.16-16.56L357.40-16.56L361.88-6.28L366.08-16.56Z"/></g>
</svg>
</g><g opacity="1" transform="rotate(0 199.1918 200.3296)">
<svg width="353.0476" height="40" x="199.1918" y="200.3296" version="1.1" preserveAspectRatio="none" viewBox="0.4102 -32.4023 289.5312 32.792899999999996">
  <g transform="matrix(1 0 0 1 0 0)" class="companyName"><path id="id-D6z1nYkh10" d="M0.41 0L14.75-30.53L21.31-30.53L36.07 0L29.57 0L27.13-5.14L9.30-5.14L6.93 0L0.41 0ZM11.66-10.23L24.69-10.23L18.09-24.10L11.66-10.23Z M40.25 0L40.25-32.40L46.04-32.40L46.04 0L40.25 0Z M53.44-11.00L53.44-23.07L59.20-23.07L59.20-11.82Q59.20-10.21 59.55-8.90Q59.90-7.58 60.75-6.64Q61.60-5.70 63.02-5.19Q64.43-4.67 66.54-4.67L66.54-4.67Q67.54-4.67 68.56-4.88Q69.59-5.10 70.53-5.48Q71.46-5.86 72.28-6.39Q73.09-6.91 73.67-7.54L73.67-7.54L73.67-23.07L79.45-23.07L79.45 0L73.67 0L73.67-1.97Q71.54-0.70 69.39-0.16Q67.25 0.39 65.31 0.39L65.31 0.39Q62.15 0.39 59.89-0.37Q57.64-1.13 56.20-2.59Q54.77-4.04 54.10-6.16Q53.44-8.28 53.44-11.00L53.44-11.00Z M86.80 0L86.80-23.05L92.58-23.05L92.58-21.09Q94.88-22.40 96.98-22.93Q99.08-23.46 101.09-23.46L101.09-23.46Q103.73-23.46 105.98-22.69Q108.22-21.91 109.86-20.39Q111.50-18.87 112.43-16.59Q113.36-14.32 113.36-11.33L113.36-11.33L113.36 0L107.60 0L107.60-10.39Q107.60-12.29 107.06-13.78Q106.52-15.27 105.52-16.30Q104.51-17.32 103.08-17.86Q101.64-18.40 99.86-18.40L99.86-18.40Q98.93-18.40 97.94-18.20Q96.95-18.01 96.01-17.65Q95.06-17.29 94.18-16.75Q93.30-16.21 92.58-15.53L92.58-15.53L92.58 0L86.80 0Z M120.61 0L120.61-23.05L126.39-23.05L126.39-21.09Q128.55-22.42 130.62-22.94Q132.68-23.46 134.65-23.46L134.65-23.46Q137.40-23.46 139.71-22.58Q142.01-21.70 143.65-19.92L143.65-19.92Q144.92-20.90 146.15-21.57Q147.38-22.25 148.61-22.67Q149.84-23.09 151.11-23.27Q152.38-23.46 153.73-23.46L153.73-23.46Q156.56-23.46 158.87-22.69Q161.17-21.91 162.80-20.39Q164.43-18.87 165.32-16.59Q166.21-14.32 166.21-11.33L166.21-11.33L166.21 0L160.45 0L160.45-10.39Q160.45-12.29 159.91-13.78Q159.38-15.27 158.41-16.30Q157.44-17.32 156.10-17.86Q154.77-18.40 153.16-18.40L153.16-18.40Q152.29-18.40 151.37-18.23Q150.45-18.07 149.58-17.71Q148.71-17.36 147.95-16.83Q147.19-16.29 146.62-15.57L146.62-15.57L146.62 0L140.86 0L140.86-10.39Q140.86-12.29 140.32-13.78Q139.79-15.27 138.82-16.30Q137.85-17.32 136.49-17.86Q135.14-18.40 133.52-18.40L133.52-18.40Q132.52-18.40 131.51-18.19Q130.51-17.99 129.58-17.62Q128.65-17.25 127.84-16.72Q127.03-16.19 126.39-15.53L126.39-15.53L126.39 0L120.61 0Z M176.52-26.19L176.52-26.19Q175.66-26.19 174.97-26.44Q174.28-26.68 173.79-27.10Q173.30-27.52 173.04-28.08Q172.77-28.63 172.77-29.26L172.77-29.26Q172.77-29.90 173.04-30.46Q173.30-31.02 173.79-31.43Q174.28-31.84 174.97-32.08Q175.66-32.32 176.52-32.32L176.52-32.32Q177.40-32.32 178.10-32.08Q178.79-31.84 179.28-31.43Q179.77-31.02 180.03-30.46Q180.29-29.90 180.29-29.26L180.29-29.26Q180.29-28.63 180.03-28.08Q179.77-27.52 179.28-27.10Q178.79-26.68 178.10-26.44Q177.40-26.19 176.52-26.19ZM173.63 0L173.63-23.05L179.41-23.05L179.41 0L173.63 0Z M187.54 0L187.54-30.53L193.73-30.53L193.73-5.43L211.48-5.43L211.48 0L187.54 0Z M219.80-26.19L219.80-26.19Q218.95-26.19 218.25-26.44Q217.56-26.68 217.07-27.10Q216.58-27.52 216.32-28.08Q216.05-28.63 216.05-29.26L216.05-29.26Q216.05-29.90 216.32-30.46Q216.58-31.02 217.07-31.43Q217.56-31.84 218.25-32.08Q218.95-32.32 219.80-32.32L219.80-32.32Q220.68-32.32 221.38-32.08Q222.07-31.84 222.56-31.43Q223.05-31.02 223.31-30.46Q223.57-29.90 223.57-29.26L223.57-29.26Q223.57-28.63 223.31-28.08Q223.05-27.52 222.56-27.10Q222.07-26.68 221.38-26.44Q220.68-26.19 219.80-26.19ZM216.91 0L216.91-23.05L222.70-23.05L222.70 0L216.91 0Z M230.10 0L230.10-23.05L235.88-23.05L235.88-21.09Q238.18-22.40 240.28-22.93Q242.38-23.46 244.39-23.46L244.39-23.46Q247.03-23.46 249.28-22.69Q251.52-21.91 253.16-20.39Q254.80-18.87 255.73-16.59Q256.66-14.32 256.66-11.33L256.66-11.33L256.66 0L250.90 0L250.90-10.39Q250.90-12.29 250.36-13.78Q249.82-15.27 248.82-16.30Q247.81-17.32 246.38-17.86Q244.94-18.40 243.16-18.40L243.16-18.40Q242.23-18.40 241.24-18.20Q240.25-18.01 239.31-17.65Q238.36-17.29 237.48-16.75Q236.60-16.21 235.88-15.53L235.88-15.53L235.88 0L230.10 0Z M263.77 0L263.77-32.40L269.55-32.40L269.55-13.26L280.33-23.05L289.18-23.05L277.13-12.27L289.94 0L281.27 0L272.70-8.30L269.55-5.49L269.55 0L263.77 0Z"/></g>
</svg>
</g><g opacity="1" transform="rotate(0 305.1061 39.7019)">
<svg width="141.219" height="130.6277" x="305.1061" y="39.7019" version="1.1" preserveAspectRatio="none" viewBox="20 26 160 148">
  <g transform="matrix(1 0 0 1 0 0)"><g><path d="M92.554 96.68a1.837 1.837 0 0 1-1.583-2.755l2.18-3.762a11.98 11.98 0 0 0-2-14.594l-1.43-1.395 21.45-18.574 18.416 12.067.082.881c.235 2.523 2.294 24.699 2.294 26.299 0 1.013-.82 1.835-1.831 1.835a1.833 1.833 0 0 1-1.831-1.835c-.005-1.103-1.286-15.274-2.197-25.077l-14.627-9.584-16.435 14.231a15.653 15.653 0 0 1 1.278 17.588l-2.18 3.762c-.34.586-.955.913-1.586.913z" data-color="1" class="icon1"></path><path d="M107.446 96.68a1.829 1.829 0 0 1-1.585-.914l-2.18-3.762a15.65 15.65 0 0 1 1.278-17.588L88.522 60.184l-14.627 9.584c-.911 9.804-2.192 23.974-2.197 25.078-.004 1.011-.78 1.848-1.836 1.83a1.83 1.83 0 0 1-1.827-1.831c0-1.6 2.059-23.776 2.294-26.299l.082-.881 18.416-12.067 21.45 18.574-1.43 1.395a11.978 11.978 0 0 0-2 14.594l2.18 3.762a1.835 1.835 0 0 1-1.581 2.757z" data-color="1" class="icon1"></path><path d="M100 55.775c-6.862 0-12.445-6.678-12.445-14.887S93.138 26 100 26s12.444 6.678 12.444 14.887S106.862 55.775 100 55.775zm0-26.106c-4.843 0-8.782 5.032-8.782 11.218s3.94 11.219 8.782 11.219c4.842 0 8.781-5.032 8.781-11.218S104.842 29.669 100 29.669z" data-color="1" class="icon1"></path><path d="M127.579 70.788a1.836 1.836 0 0 1-.65-3.551l12.314-4.682a1.828 1.828 0 0 1 2.361 1.064 1.836 1.836 0 0 1-1.062 2.366l-12.314 4.682a1.784 1.784 0 0 1-.649.121z" data-color="1" class="icon1"></path><path d="M169.643 103.653a1.832 1.832 0 0 1-1.831-1.825c-.012-.594-.473-7.267-.918-13.721-.315-4.581-.652-9.46-.902-13.218a7.265 7.265 0 0 0-4.657-6.292l-6.868-2.612a1.836 1.836 0 0 1-1.062-2.366 1.83 1.83 0 0 1 2.362-1.063l6.868 2.612a10.942 10.942 0 0 1 7.01 9.478c.25 3.754.587 8.631.902 13.209.644 9.341.926 13.484.926 13.964a1.831 1.831 0 0 1-1.83 1.834z" data-color="1" class="icon1"></path><path d="M147.504 68.519c-3.038 0-6.075-.916-8.668-2.75a1.836 1.836 0 0 1-.439-2.557 1.83 1.83 0 0 1 2.552-.44 11.372 11.372 0 0 0 13.11.001 1.83 1.83 0 0 1 2.553.441 1.836 1.836 0 0 1-.44 2.556 15.004 15.004 0 0 1-8.668 2.749z" data-color="1" class="icon1"></path><path d="M147.504 60.721c-5.464 0-9.91-5.279-9.91-11.769s4.445-11.77 9.91-11.77c5.464 0 9.91 5.28 9.91 11.77s-4.446 11.769-9.91 11.769zm0-19.87c-3.444 0-6.247 3.634-6.247 8.101 0 4.466 2.803 8.1 6.247 8.1s6.247-3.634 6.247-8.1c0-4.467-2.803-8.101-6.247-8.101z" data-color="1" class="icon1"></path><path d="M180 174h-20.806c-5.452 0-9.887-4.443-9.887-9.905v-11.819c0-4.981-4.045-9.033-9.016-9.033H59.709c-4.972 0-9.016 4.053-9.016 9.033v11.819c0 5.461-4.435 9.905-9.887 9.905H20v-63.641c0-5.721 4.646-10.375 10.357-10.375h139.286c5.711 0 10.357 4.655 10.357 10.376V174zM59.709 139.574h80.583c6.991 0 12.679 5.698 12.679 12.702v11.819c0 3.438 2.792 6.235 6.224 6.235h17.143v-59.97c0-3.699-3.003-6.707-6.695-6.707H30.357c-3.691 0-6.694 3.008-6.694 6.706v59.972h17.144c3.432 0 6.224-2.797 6.224-6.235v-11.819c-.001-7.005 5.687-12.703 12.678-12.703z" data-color="1" class="icon1"></path><path d="M147.505 87.423a1.833 1.833 0 0 1-1.831-1.835V73.774c0-1.013.82-1.835 1.831-1.835s1.831.821 1.831 1.835v11.814a1.833 1.833 0 0 1-1.831 1.835z" data-color="1" class="icon1"></path><path d="M72.421 70.788c-.216 0-.436-.039-.65-.12l-12.314-4.682a1.835 1.835 0 0 1 1.299-3.43l12.314 4.682a1.835 1.835 0 0 1-.649 3.55z" data-color="1" class="icon1"></path><path d="M30.358 103.642h-.017a1.823 1.823 0 0 1-1.814-1.823c0-.477.28-4.594.92-13.87.317-4.605.656-9.523.908-13.302a10.942 10.942 0 0 1 7.012-9.478l6.867-2.612a1.83 1.83 0 0 1 2.362 1.063 1.836 1.836 0 0 1-1.062 2.366l-6.868 2.612a7.268 7.268 0 0 0-4.658 6.292c-.251 3.782-.591 8.704-.908 13.311-.443 6.421-.901 13.061-.911 13.63a1.843 1.843 0 0 1-1.831 1.811z" data-color="1" class="icon1"></path><path d="M52.495 68.519a15 15 0 0 1-8.666-2.748l2.11-2.999a11.376 11.376 0 0 0 13.112 0 1.829 1.829 0 0 1 2.552.441 1.835 1.835 0 0 1-.44 2.556 14.99 14.99 0 0 1-8.668 2.75z" data-color="1" class="icon1"></path><path d="M52.497 60.721c-5.464 0-9.91-5.279-9.91-11.769s4.446-11.77 9.91-11.77 9.91 5.28 9.91 11.77-4.446 11.769-9.91 11.769zm0-19.87c-3.445 0-6.248 3.634-6.248 8.101 0 4.466 2.803 8.1 6.248 8.1 3.444 0 6.247-3.634 6.247-8.1 0-4.467-2.803-8.101-6.247-8.101z" data-color="1" class="icon1"></path><path d="M52.496 87.423a1.833 1.833 0 0 1-1.831-1.835V73.774c0-1.013.82-1.835 1.831-1.835s1.831.821 1.831 1.835v11.814c0 1.013-.82 1.835-1.831 1.835z" data-color="1" class="icon1"></path></g></g>
</svg>
</g></svg></svg>