<svg version="1.1" preserveAspectRatio="none" xmlns="http://www.w3.org/2000/svg" width="500" height="500" viewBox="0 0 500 500"><rect width="100%" height="100%" fill="#414141" fill-opacity="1"/><svg viewBox="49.9907 86.2829 385.6865 305.6711" width="333" height="263.915061325714" x="83.5px" y="118.0425px" xmlns="http://www.w3.org/2000/svg" xmlns:xlink="http://www.w3.org/1999/xlink" preserveAspectRatio="none"><defs></defs><style>.companyName {fill:#E9E9E9;fill-opacity:1;}.icon3-str {stroke:#888888;stroke-opacity:1;}.shape {fill:#282828;fill-opacity:1;}.shapeStroke-str {stroke:#E9E9E9;stroke-opacity:1;}.text {fill:#E9E9E9;fill-opacity:1;}</style><g opacity="1" transform="rotate(0 89.9907 86.2829)">
<svg width="305.6865" height="305.6711" x="89.9907" y="86.2829" version="1.1" preserveAspectRatio="none" viewBox="0 0 305.6865 305.6711">
  <defs><rect x="0" y="0" width="305.6865" height="305.6711" rx="0%" ry="0%" id="id-aPBVVfuK1716716084145"></rect></defs><use class="shape shapeStroke-str" style="stroke-width:0;" xlink:href="#id-aPBVVfuK1716716084145"></use>
</svg>
</g><g opacity="1" transform="rotate(0 115.1501 278.1184)">
<svg width="255.3677" height="16.72" x="115.1501" y="278.1184" version="1.1" preserveAspectRatio="none" viewBox="2.72 -29.2 452.0799999999999 29.6">
  <g transform="matrix(1 0 0 1 0 0)" class="text"><path id="id-6izo4zJp16" d="M25.60-6.76Q24.36-3.40 21.52-1.50Q18.68 0.40 14.96 0.40L14.96 0.40Q11.24 0.40 8.48-1.26Q5.72-2.92 4.22-5.98Q2.72-9.04 2.72-13.20L2.72-13.20Q2.72-17.32 4.22-20.40Q5.72-23.48 8.48-25.14Q11.24-26.80 14.88-26.80L14.88-26.80Q18.68-26.80 21.26-25.24Q23.84-23.68 25.12-20.64L25.12-20.64L21.96-19.16Q21.08-21.48 19.40-22.64Q17.72-23.80 15.12-23.80L15.12-23.80Q12.40-23.80 10.36-22.54Q8.32-21.28 7.20-18.88Q6.08-16.48 6.08-13.20L6.08-13.20Q6.08-8.24 8.46-5.42Q10.84-2.60 14.96-2.60L14.96-2.60Q17.64-2.60 19.60-3.96Q21.56-5.32 22.40-7.96L22.40-7.96L25.60-6.76Z M45.60-20.40Q50.12-20.40 52.70-17.64Q55.28-14.88 55.28-10L55.28-10Q55.28-5.12 52.70-2.36Q50.12 0.40 45.60 0.40L45.60 0.40Q41.08 0.40 38.50-2.36Q35.92-5.12 35.92-10L35.92-10Q35.92-14.88 38.50-17.64Q41.08-20.40 45.60-20.40L45.60-20.40ZM45.60-17.64Q42.56-17.64 40.84-15.60Q39.12-13.56 39.12-10L39.12-10Q39.12-6.44 40.84-4.40Q42.56-2.36 45.60-2.36L45.60-2.36Q48.64-2.36 50.36-4.40Q52.08-6.44 52.08-10L52.08-10Q52.08-13.56 50.36-15.60Q48.64-17.64 45.60-17.64L45.60-17.64Z M77.20-20.40Q80.60-20.40 82.80-18.44Q85-16.48 85-12.80L85-12.80L85 0L81.80 0L81.80-11.68Q81.80-14.80 80.46-16.20Q79.12-17.60 76.88-17.60L76.88-17.60Q75.28-17.60 73.88-16.90Q72.48-16.20 71.58-14.62Q70.68-13.04 70.68-10.64L70.68-10.64L70.68 0L67.48 0L67.48-20L70.28-20L70.48-16.88Q71.48-18.68 73.24-19.54Q75-20.40 77.20-20.40L77.20-20.40Z M107.96-20.40Q111.36-20.40 113.56-18.44Q115.76-16.48 115.76-12.80L115.76-12.80L115.76 0L112.56 0L112.56-11.68Q112.56-14.80 111.22-16.20Q109.88-17.60 107.64-17.60L107.64-17.60Q106.04-17.60 104.64-16.90Q103.24-16.20 102.34-14.62Q101.44-13.04 101.44-10.64L101.44-10.64L101.44 0L98.24 0L98.24-20L101.04-20L101.24-16.88Q102.24-18.68 104-19.54Q105.76-20.40 107.96-20.40L107.96-20.40Z M146.16-11.04Q146.16-9.92 146-8.80L146-8.80L130.92-8.80Q131.20-5.76 132.94-4.08Q134.68-2.40 137.44-2.40L137.44-2.40Q139.64-2.40 141.10-3.16Q142.56-3.92 143.08-5.36L143.08-5.36L145.76-3.96Q144.56-1.84 142.56-0.72Q140.56 0.40 137.44 0.40L137.44 0.40Q132.92 0.40 130.34-2.36Q127.76-5.12 127.76-10L127.76-10Q127.76-14.88 130.22-17.64Q132.68-20.40 137.20-20.40L137.20-20.40Q140-20.40 142.04-19.16Q144.08-17.92 145.12-15.80Q146.16-13.68 146.16-11.04L146.16-11.04ZM137.20-17.60Q134.56-17.60 132.94-16.04Q131.32-14.48 130.96-11.64L130.96-11.64L143.08-11.64Q142.76-14.44 141.24-16.02Q139.72-17.60 137.20-17.60L137.20-17.60Z M166.68-20.40Q169.68-20.40 171.74-19.02Q173.80-17.64 174.96-15.08L174.96-15.08L171.92-13.64Q170.64-17.60 166.60-17.60L166.60-17.60Q163.60-17.60 161.90-15.58Q160.20-13.56 160.20-10L160.20-10Q160.20-6.44 161.90-4.42Q163.60-2.40 166.60-2.40L166.60-2.40Q168.92-2.40 170.34-3.46Q171.76-4.52 172.20-6.52L172.20-6.52L175.16-5.48Q174.12-2.68 171.96-1.14Q169.80 0.40 166.68 0.40L166.68 0.40Q162.16 0.40 159.58-2.36Q157-5.12 157-10L157-10Q157-14.88 159.58-17.64Q162.16-20.40 166.68-20.40L166.68-20.40Z M197.92-4.08L199.04-1.40Q197.04 0.40 193.88 0.40L193.88 0.40Q191.44 0.40 189.90-0.92Q188.36-2.24 188.32-4.96L188.32-4.96L188.32-17.24L184.32-17.24L184.32-20L188.32-20L188.32-24.80L191.52-25.68L191.52-20L198.92-20L198.92-17.24L191.52-17.24L191.52-5.52Q191.52-4.08 192.34-3.34Q193.16-2.60 194.52-2.60L194.52-2.60Q196.44-2.60 197.92-4.08L197.92-4.08Z M245.60-2.32Q246.40-2.32 247.20-2.52L247.20-2.52L247.00 0Q245.88 0.40 244.60 0.40L244.60 0.40Q243.04 0.40 242.14-0.28Q241.24-0.96 241.00-2.56L241.00-2.56Q240.08-1.16 238.30-0.38Q236.52 0.40 234.56 0.40L234.56 0.40Q231.60 0.40 229.68-0.98Q227.76-2.36 227.76-4.96L227.76-4.96Q227.76-7.24 229.76-8.90Q231.76-10.56 235.56-11.20L235.56-11.20L240.88-12.08L240.88-13.20Q240.88-15.20 239.64-16.40Q238.40-17.60 236.20-17.60L236.20-17.60Q234.20-17.60 232.74-16.64Q231.28-15.68 230.48-13.80L230.48-13.80L228.12-15.52Q228.92-17.76 231.10-19.08Q233.28-20.40 236.20-20.40L236.20-20.40Q239.76-20.40 241.92-18.68Q244.08-16.96 244.08-13.60L244.08-13.60L244.08-3.76Q244.08-3.04 244.44-2.68Q244.80-2.32 245.60-2.32L245.60-2.32ZM234.72-2.40Q237.24-2.40 239.06-3.60Q240.88-4.80 240.88-6.72L240.88-6.72L240.88-9.48L236.40-8.64Q233.72-8.16 232.40-7.26Q231.08-6.36 231.08-4.96L231.08-4.96Q231.08-3.72 232.04-3.06Q233.00-2.40 234.72-2.40L234.72-2.40Z M267.56-20.40Q270.96-20.40 273.16-18.44Q275.36-16.48 275.36-12.80L275.36-12.80L275.36 0L272.16 0L272.16-11.68Q272.16-14.80 270.82-16.20Q269.48-17.60 267.24-17.60L267.24-17.60Q265.64-17.60 264.24-16.90Q262.84-16.20 261.94-14.62Q261.04-13.04 261.04-10.64L261.04-10.64L261.04 0L257.84 0L257.84-20L260.64-20L260.84-16.88Q261.84-18.68 263.60-19.54Q265.36-20.40 267.56-20.40L267.56-20.40Z M303.16-29.20L306.36-29.20L306.36 0L303.56 0L303.36-3.48Q302.48-1.72 300.66-0.66Q298.84 0.40 296.52 0.40L296.52 0.40Q292.32 0.40 289.86-2.38Q287.40-5.16 287.40-10L287.40-10Q287.40-14.84 289.86-17.62Q292.32-20.40 296.52-20.40L296.52-20.40Q298.72-20.40 300.46-19.44Q302.20-18.48 303.16-16.88L303.16-16.88L303.16-29.20ZM296.88-2.40Q299.76-2.40 301.46-4.40Q303.16-6.40 303.16-9.76L303.16-9.76L303.16-10.24Q303.16-13.60 301.46-15.60Q299.76-17.60 296.88-17.60L296.88-17.60Q293.96-17.60 292.28-15.54Q290.60-13.48 290.60-10L290.60-10Q290.60-6.52 292.28-4.46Q293.96-2.40 296.88-2.40L296.88-2.40Z M350.20-13.32L361.52-13.32L361.52 0L359.12 0L359-3.56Q357.84-1.64 355.74-0.62Q353.64 0.40 350.68 0.40L350.68 0.40Q346.96 0.40 344.20-1.26Q341.44-2.92 339.94-5.98Q338.44-9.04 338.44-13.20L338.44-13.20Q338.44-17.32 339.98-20.40Q341.52-23.48 344.30-25.14Q347.08-26.80 350.76-26.80L350.76-26.80Q354.68-26.80 357.22-25.32Q359.76-23.84 361.32-20.76L361.32-20.76L358.40-19.16Q357.52-21.40 355.54-22.60Q353.56-23.80 350.76-23.80L350.76-23.80Q348.08-23.80 346.06-22.52Q344.04-21.24 342.92-18.86Q341.80-16.48 341.80-13.20L341.80-13.20Q341.80-8.16 344.12-5.38Q346.44-2.60 350.80-2.60L350.80-2.60Q354.24-2.60 356.42-4.36Q358.60-6.12 358.60-9.40L358.60-9.40L358.60-10.32L350.20-10.32L350.20-13.32Z M383.84-20.40Q385.28-20.40 386.04-20L386.04-20L385.40-16.88Q384.44-17.40 382.88-17.40L382.88-17.40Q381.60-17.40 380.38-16.66Q379.16-15.92 378.38-14.42Q377.60-12.92 377.60-10.80L377.60-10.80L377.60 0L374.40 0L374.40-20L377.00-20L377.44-16.72Q379.12-20.40 383.84-20.40L383.84-20.40Z M404.52-20.40Q409.04-20.40 411.62-17.64Q414.20-14.88 414.20-10L414.20-10Q414.20-5.12 411.62-2.36Q409.04 0.40 404.52 0.40L404.52 0.40Q400.00 0.40 397.42-2.36Q394.84-5.12 394.84-10L394.84-10Q394.84-14.88 397.42-17.64Q400.00-20.40 404.52-20.40L404.52-20.40ZM404.52-17.64Q401.48-17.64 399.76-15.60Q398.04-13.56 398.04-10L398.04-10Q398.04-6.44 399.76-4.40Q401.48-2.36 404.52-2.36L404.52-2.36Q407.56-2.36 409.28-4.40Q411.00-6.44 411.00-10L411.00-10Q411.00-13.56 409.28-15.60Q407.56-17.64 404.52-17.64L404.52-17.64Z M451.24-20L454.80-20L447.84 0L444.64 0L439.00-15.92L433.68 0L430.48 0L423.52-20L427.08-20L432.12-3.72L437.56-20L440.76-20L446.20-3.72L451.24-20Z"/></g>
</svg>
</g><g opacity="1" transform="rotate(0 49.9907 220.1184)">
<svg width="385.6865" height="38" x="49.9907" y="220.1184" version="1.1" preserveAspectRatio="none" viewBox="1.2 -26.6 274.04 27.000000000000004">
  <g transform="matrix(1 0 0 1 0 0)" class="companyName"><path id="id-D6z1nYkh10" d="M9.84 0L1.20 0L1.20-0.64L3.72-1.96L14-26.60L16.20-26.60L26.36-2.08L29.04-0.64L29.04 0L18.48 0L18.48-0.64L22-2.04L19.04-9.24L9.40-9.24L6.48-2L9.84-0.64L9.84 0ZM14.24-21.08L10.32-11.44L18.16-11.44L14.24-21.08Z M53 0L34.64 0L34.64-0.64L37.52-1.96L37.52-20.44L34.64-21.76L34.64-22.40L44.72-22.40L44.72-21.76L41.48-20.44L41.48-2L49.84-2L52.36-7.88L53-7.88L53 0Z M72.56 0.40L72.56 0.40Q69.80 0.40 67.62-0.50Q65.44-1.40 64.20-3.42Q62.96-5.44 62.96-8.76L62.96-8.76L62.96-20.44L60.04-21.76L60.04-22.40L69.84-22.40L69.84-21.76L66.92-20.44L66.92-8.96Q66.92-4.96 68.68-3.40Q70.44-1.84 73.40-1.84L73.40-1.84Q75.12-1.84 76.54-2.50Q77.96-3.16 78.80-4.54Q79.64-5.92 79.64-8.08L79.64-8.08L79.64-20.52L76.28-21.76L76.28-22.40L84.84-22.40L84.84-21.76L82-20.48L82-8.68Q82-5.44 80.80-3.44Q79.60-1.44 77.48-0.52Q75.36 0.40 72.56 0.40Z M100.16 0L91.48 0L91.48-0.64L94.32-1.96L94.32-20.48L91.48-21.76L91.48-22.40L97.44-22.40L110.96-6.36L110.96-20.48L107.44-21.76L107.44-22.40L116.04-22.40L116.04-21.76L113.20-20.48L113.20 0.16L111.36 0.16L96.60-17.24L96.60-2.08L100.16-0.64L100.16 0Z M130.68 0L122.52 0L122.52-0.64L125.36-1.96L126.12-20.44L123.04-21.76L123.04-22.40L130.76-22.40L138.08-6L145.64-22.40L153-22.40L153-21.76L150.04-20.68L150.60-1.96L153.16-0.64L153.16 0L143.88 0L143.88-0.64L146.56-1.92L146.20-18.52L137.60 0.16L136.40 0.16L128.16-18.48L127.76-1.92L130.68-0.64L130.68 0Z M169.36 0L159.96 0L159.96-0.64L162.60-1.96L162.60-20.44L159.96-21.76L159.96-22.40L169.36-22.40L169.36-21.76L166.60-20.44L166.60-1.96L169.36-0.64L169.36 0Z M196.72 0L176.32 0L176.32-0.64L179.56-2.24L179.56-24.16L176.32-25.76L176.32-26.40L187.40-26.40L187.40-25.76L183.76-24.16L183.76-2.20L193.24-2.20L196.08-9.08L196.72-9.08L196.72 0Z M213.32 0L203.92 0L203.92-0.64L206.56-1.96L206.56-20.44L203.92-21.76L203.92-22.40L213.32-22.40L213.32-21.76L210.56-20.44L210.56-1.96L213.32-0.64L213.32 0Z M228.80 0L220.12 0L220.12-0.64L222.96-1.96L222.96-20.48L220.12-21.76L220.12-22.40L226.08-22.40L239.60-6.36L239.60-20.48L236.08-21.76L236.08-22.40L244.68-22.40L244.68-21.76L241.84-20.48L241.84 0.16L240.00 0.16L225.24-17.24L225.24-2.08L228.80-0.64L228.80 0Z M261.08 0L251.32 0L251.32-0.64L254.24-1.96L254.24-20.44L251.32-21.76L251.32-22.40L261.08-22.40L261.08-21.76L258.20-20.44L258.20-1.96L261.08-0.64L261.08 0ZM275.24 0L268.92 0L258.20-11.40L267.48-20.64L264.96-21.76L264.96-22.40L273-22.40L273-21.76L270.72-20.88L262.12-12.64L272.44-1.72L275.24-0.64L275.24 0Z"/></g>
</svg>
</g></svg></svg>